<svg xmlns="http://www.w3.org/2000/svg" width="163" height="42" viewBox="0 0 163 42"><path fill="#666" d="M2.799 20.224L2.3 22.858h6.29l.273-1.452c.798 1.234 2.175 2.445 3.318 3.656l-4.625 3.28.284-1.505c-2.067-.015-4.17-.14-6.25-.224L0 35.02h3.716l1-5.172c4.895.556 9.33-.777 9.539-5.684-.184-5.368-7.118-4.458-11.465-3.939zm85.617.649L84.5 21.946l-.38 2.06h-1.344l-.558 2.887h1.343l-.762 3.85c-.377 1.87-.408 3.332.902 4.057 1.146.634 2.47.479 4.09.174l.493-2.977c-1.782.185-2.083-.22-1.635-2.081l.627-3.022h2.238l.56-2.887h-2.237zm-45.155 4.812c0-.499.084-1.138.134-1.678h-3.268c-.5 3.689-1.206 7.13-1.925 11.012h3.694l.849-4.7c.381-2.105 1.3-3.515 2.262-3.515.938 0 .854 1.282.65 2.328l-1.098 5.887h3.649l.895-4.7c.38-2.126 1.231-3.515 2.194-3.515 1.038.015.896 1.244.694 2.329l-1.075 5.887h3.694l1.163-6.379c.614-3.151-.218-4.833-2.506-4.88-1.32 0-2.686.583-3.67 1.926-.277-2.328-4.384-2.746-6.336 0zm20.788-1.925c-4.14 0-6.558 3.38-6.558 6.738 0 3.067 1.769 4.745 5.014 4.745 1.096 0 2.82-.156 4.297-.872l-.224-2.733c-1.199.73-5.067 1.299-5.461-.626 4.521.135 7.028-1.007 7.028-3.76 0-2.239-1.79-3.492-4.096-3.492zm9.913 1.948c-.059-.436.08-1.181.134-1.7h-3.358c-.558 3.685-1.26 7.127-1.992 11.012h3.806l.895-4.7c.448-2.283 1.388-3.492 2.305-3.492 1.044-.023.873 1.21.716 2.216l-1.118 5.977h3.804l1.232-6.379c.581-2.895-.216-4.345-1.592-4.72-1.701-.463-3.557.165-4.832 1.788zm-59.793 5.64c0 2.396 1.433 3.918 3.403 3.918 1.164 0 2.53-.515 3.47-2.149h.067a52.343 52.343 0 0 1-.113 1.902h3.493c-.044-1.432.201-3.692.425-4.88l1.186-5.774c-5.612-1.86-11.78.29-11.93 6.984zm13.137-7.341l2.149 9.849c.066.246.044.38-.046.537-.737 1.148-2.047 2.083-3.446 2.417l.828 3.291c.76-.112 2.372-.673 3.67-1.88 1.455-1.322 2.844-3.336 4.433-6.492l3.827-7.722h-4.006c-.878 2.23-1.813 4.652-2.53 6.826-.376-2.331-.627-4.861-.85-6.826zm37.28 3.244c0 .694-.806 1.03-3.134 1 .088-1.722 3.04-2.39 3.134-1zm-42.761-.559l-.47 2.217c-.47 2.596-1.41 3.29-2.103 3.29-.65 0-1.097-.537-1.097-1.567.155-2.44 1.688-4.458 3.67-3.94z"/><path fill="#19e" d="M121.536 8.568C116.83 8 109.83 10 107.176 15.4c4.654-5.4 14.568-3.682 17.21-3.1C128.83-1 148.83 3 147.084 15.453c17.172 1.771 14.391 22.427-.527 22.696-23.587 1.158-69.012-.6-94.567.108 28.664 1.481 57.342 2.316 86.032 3.013 6.665.16 14.025.876 19.247-2.752C162.93 34.013 164.83 25 161 19.07c-2.474-3.829-6.17-6.071-9.924-7.02C147.83-3 127.83-3 121.536 8.567zm-28.444 19.03c.044 6.822 5.404 9.04 10.922 6.884l-.275-3.109c-4.312 1.636-7.135-.293-7.06-4.205.117-6.499 4.683-8.145 8.486-6.616l.92-3.136c-6.759-2.746-13.12 2.396-12.993 10.181zM108.8 18.7l-3.127 16.327h3.313l3.127-16.327zm38.602 0l-.99 5.106a4.421 4.421 0 0 0-1.519-.278c-4.254 0-7.084 3.61-7.084 7.52 0 2.715 1.566 4.23 3.474 4.23 1.334 0 2.715-.574 3.7-2.07.068.468-.065 1.26-.114 1.818h3.013c.067-1.335.275-2.92.53-4.368l2.277-11.958zm-28.524 4.827c-4 0-6.715 3.222-6.715 7.108 0 2.782 1.908 4.643 4.761 4.643 4.65-.092 6.71-3.767 6.714-7.104-.033-2.474-1.659-4.647-4.76-4.647zm7.825.255l-1.196 6.276c-.6 3.053-.08 5.225 2.67 5.22 1.354 0 2.712-.62 3.862-2.092.057.526-.095 1.26-.162 1.84h2.92c.162-1.012.345-2.23.62-3.657l1.425-7.587h-3.308l-.99 5.22c-.415 2.229-1.588 3.587-2.715 3.587-1.268.03-1.26-1.29-.965-2.783l1.15-6.024zm19.25 2.666l-.6 3.013c-.412 2.138-1.586 3.15-2.551 3.15-.966 0-1.543-.76-1.543-2.114.134-3.43 2.696-5.284 4.694-4.05zm-27.514-.389c1.31 0 1.773 1.08 1.773 2.138 0 1.908-1.035 4.553-2.805 4.553-1.327-.024-1.912-1.069-1.818-2.185.045-1.59.88-4.526 2.85-4.506z"/></svg>
